<svg width="845" height="100" viewBox="0 0 845 100" fill="none" xmlns="http://www.w3.org/2000/svg">
<path d="M644 15.7894H584C579.864 15.7894 576.5 19.385 576.5 23.8063V39.8403C576.5 44.2616 579.864 47.8573 584 47.8573H644C648.136 47.8573 651.5 44.2616 651.5 39.8403V23.8063C651.5 19.385 648.136 15.7894 644 15.7894ZM584 39.8403V23.8063H644L644.007 39.8403H584ZM644 55.8742H584C579.864 55.8742 576.5 59.4698 576.5 63.8912V79.9251C576.5 84.3465 579.864 87.9421 584 87.9421H644C648.136 87.9421 651.5 84.3465 651.5 79.9251V63.8912C651.5 59.4698 648.136 55.8742 644 55.8742ZM584 79.9251V63.8912H644L644.007 79.9251H584Z" fill="white"/>
<path d="M632.75 27.8148H640.25V35.8318H632.75V27.8148ZM621.5 27.8148H629V35.8318H621.5V27.8148ZM632.75 67.8997H640.25V75.9167H632.75V67.8997ZM621.5 67.8997H629V75.9167H621.5V67.8997Z" fill="white"/>
<path d="M377.833 52.0833C377.833 53.3875 379.754 55.6583 384.208 57.8875C389.975 60.7708 398.154 62.5 407 62.5C415.846 62.5 424.025 60.7708 429.792 57.8875C434.246 55.6583 436.167 53.3875 436.167 52.0833V43.0375C429.292 47.2875 418.779 50 407 50C395.221 50 384.708 47.2833 377.833 43.0375V52.0833ZM436.167 63.8708C429.292 68.1208 418.779 70.8333 407 70.8333C395.221 70.8333 384.708 68.1167 377.833 63.8708V72.9167C377.833 74.2208 379.754 76.4917 384.208 78.7208C389.975 81.6042 398.154 83.3333 407 83.3333C415.846 83.3333 424.025 81.6042 429.792 78.7208C434.246 76.4917 436.167 74.2208 436.167 72.9167V63.8708ZM369.5 72.9167V31.25C369.5 20.8958 386.292 12.5 407 12.5C427.708 12.5 444.5 20.8958 444.5 31.25V72.9167C444.5 83.2708 427.708 91.6667 407 91.6667C386.292 91.6667 369.5 83.2708 369.5 72.9167ZM407 41.6667C415.846 41.6667 424.025 39.9375 429.792 37.0542C434.246 34.825 436.167 32.5542 436.167 31.25C436.167 29.9458 434.246 27.675 429.792 25.4458C424.025 22.5625 415.846 20.8333 407 20.8333C398.154 20.8333 389.975 22.5625 384.208 25.4458C379.754 27.675 377.833 29.9458 377.833 31.25C377.833 32.5542 379.754 34.825 384.208 37.0542C389.975 39.9375 398.154 41.6667 407 41.6667Z" fill="white"/>
<g clip-path="url(#clip0)">
<path d="M211.422 67.5364L211.391 67.5051L206.266 62.9895L211.391 58.4739C211.953 57.9739 212.016 57.0989 211.516 56.5364L211.484 56.5051L208.766 53.5989C208.234 53.0364 207.359 53.0208 206.828 53.5364L197.812 61.9895C197.234 62.5364 197.234 63.4582 197.812 63.9895L206.828 72.4426C207.078 72.677 207.422 72.8176 207.766 72.8176C208.141 72.8176 208.516 72.6614 208.766 72.3801L211.484 69.4739C212 68.927 211.969 68.052 211.422 67.5364ZM245.797 28.2864L232.688 15.1771C231.281 13.7708 229.375 12.974 227.391 12.974H195.5C191.359 12.9896 188 16.349 188 20.4896V85.4895C188 89.6301 191.359 92.9894 195.5 92.9894H240.5C244.641 92.9894 248 89.6301 248 85.4895V33.5989C248 31.6146 247.203 29.6927 245.797 28.2864ZM228 21.0989L239.891 32.9895H228V21.0989ZM240.5 85.4895H195.5V20.4896H220.5V36.7395C220.5 38.8177 222.172 40.4895 224.25 40.4895H240.5V85.4895ZM220.75 46.427C220.016 46.2083 219.266 46.6301 219.047 47.3645L210.5 76.7551C210.281 77.4895 210.703 78.2551 211.438 78.4582L215.25 79.5676C215.984 79.7863 216.75 79.3488 216.953 78.6301L225.5 49.2239C225.719 48.4895 225.297 47.7239 224.562 47.5208L220.75 46.427ZM224.578 58.4426L224.609 58.4739L229.734 62.9895L224.609 67.5051C224.047 68.0051 223.984 68.8801 224.484 69.4426L224.516 69.4739L227.234 72.3801C227.75 72.927 228.625 72.9582 229.172 72.4426L238.188 63.9895C238.766 63.4426 238.766 62.5207 238.188 61.9895L229.172 53.5364C228.625 53.0208 227.75 53.0364 227.234 53.5989L224.516 56.5051C224 57.052 224.031 57.927 224.578 58.4426Z" fill="white"/>
</g>
<g clip-path="url(#clip1)">
<path d="M73.9947 77.1249H44.3986V86.9132H51.7977C52.4656 86.9132 53.0437 87.1573 53.5318 87.6454C54.0199 88.1335 54.264 88.7116 54.264 89.3795C54.264 90.0475 54.0199 90.6256 53.5318 91.1137C53.0437 91.6018 52.4656 91.8459 51.7977 91.8459H27.1342C26.4663 91.8459 25.8882 91.6018 25.4001 91.1137C24.912 90.6256 24.6679 90.0475 24.6679 89.3795C24.6679 88.7116 24.912 88.1335 25.4001 87.6454C25.8882 87.1573 26.4663 86.9132 27.1342 86.9132H34.5333V77.1249H4.93715C3.54984 77.1249 2.38089 76.6368 1.43032 75.6605C0.479756 74.6843 0.00447083 73.5282 0.00447083 72.1922V17.9327C0.00447083 16.5454 0.479756 15.3764 1.43032 14.4259C2.38089 13.4753 3.54984 13 4.93715 13H73.9947C75.3821 13 76.551 13.4753 77.5016 14.4259C78.4521 15.3764 78.9274 16.5454 78.9274 17.9327V72.1922C78.9274 73.5282 78.4521 74.6843 77.5016 75.6605C76.551 76.6368 75.3821 77.1249 73.9947 77.1249ZM73.9947 17.9327H4.93715V62.3269H73.9947V17.9327ZM9.86984 57.3171V22.7883H59.1967L9.86984 57.3171Z" fill="white"/>
</g>
<path d="M778.333 16.6667C776.565 16.6667 774.87 17.3691 773.619 18.6193C772.369 19.8695 771.667 21.5652 771.667 23.3333V50H778.333V36.6667H785V50H791.667V23.3333C791.667 21.5652 790.964 19.8695 789.714 18.6193C788.464 17.3691 786.768 16.6667 785 16.6667H778.333ZM778.333 23.3333H785V30H778.333V23.3333ZM838.333 61.6667V56.6667C838.333 54.8986 837.631 53.2029 836.381 51.9526C835.131 50.7024 833.435 50 831.667 50H818.333V83.3333H831.667C833.435 83.3333 835.131 82.631 836.381 81.3807C837.631 80.1305 838.333 78.4348 838.333 76.6667V71.6667C838.3 70.3512 837.762 69.099 836.832 68.1685C835.901 67.238 834.649 66.7004 833.333 66.6667C834.649 66.6329 835.901 66.0953 836.832 65.1648C837.762 64.2344 838.3 62.9821 838.333 61.6667ZM831.667 76.6667H825V70H831.667V76.6667ZM831.667 63.3333H825V56.6667H831.667V63.3333ZM784.3 82.0333L779.033 77.9667L825.7 17.9667L830.967 22.0333L784.3 82.0333Z" fill="white"/>
<path fill-rule="evenodd" clip-rule="evenodd" d="M136.024 53.3362C136.111 53.2489 136.214 53.1797 136.328 53.1324C136.442 53.0851 136.564 53.0608 136.687 53.0608C136.811 53.0608 136.933 53.0851 137.047 53.1324C137.161 53.1797 137.264 53.2489 137.351 53.3362L142.976 58.9612C143.064 59.0483 143.133 59.1518 143.18 59.2657C143.227 59.3796 143.252 59.5017 143.252 59.625C143.252 59.7483 143.227 59.8704 143.18 59.9843C143.133 60.0982 143.064 60.2017 142.976 60.2887L137.351 65.9137C137.175 66.0898 136.936 66.1887 136.687 66.1887C136.439 66.1887 136.2 66.0898 136.024 65.9137C135.848 65.7377 135.749 65.499 135.749 65.25C135.749 65.001 135.848 64.7623 136.024 64.5862L140.987 59.625L136.024 54.6637C135.936 54.5767 135.867 54.4732 135.82 54.3593C135.773 54.2454 135.748 54.1233 135.748 54C135.748 53.8767 135.773 53.7546 135.82 53.6407C135.867 53.5268 135.936 53.4233 136.024 53.3362Z" fill="white"/>
<path fill-rule="evenodd" clip-rule="evenodd" d="M120.75 59.625C120.75 59.3764 120.849 59.1379 121.025 58.9621C121.2 58.7863 121.439 58.6875 121.687 58.6875H141.375C141.624 58.6875 141.862 58.7863 142.038 58.9621C142.214 59.1379 142.312 59.3764 142.312 59.625C142.312 59.8736 142.214 60.1121 142.038 60.2879C141.862 60.4637 141.624 60.5625 141.375 60.5625H121.687C121.439 60.5625 121.2 60.4637 121.025 60.2879C120.849 60.1121 120.75 59.8736 120.75 59.625ZM127.976 42.0862C128.064 42.1733 128.133 42.2768 128.18 42.3907C128.227 42.5046 128.252 42.6267 128.252 42.75C128.252 42.8733 128.227 42.9954 128.18 43.1093C128.133 43.2232 128.064 43.3267 127.976 43.4137L123.013 48.375L127.976 53.3362C128.063 53.4234 128.133 53.5269 128.18 53.6408C128.227 53.7547 128.251 53.8767 128.251 54C128.251 54.1233 128.227 54.2453 128.18 54.3592C128.133 54.4731 128.063 54.5766 127.976 54.6637C127.889 54.7509 127.786 54.8201 127.672 54.8672C127.558 54.9144 127.436 54.9387 127.312 54.9387C127.189 54.9387 127.067 54.9144 126.953 54.8672C126.839 54.8201 126.736 54.7509 126.649 54.6637L121.024 49.0387C120.936 48.9517 120.867 48.8482 120.82 48.7343C120.773 48.6204 120.748 48.4983 120.748 48.375C120.748 48.2517 120.773 48.1296 120.82 48.0157C120.867 47.9018 120.936 47.7983 121.024 47.7112L126.649 42.0862C126.736 41.9989 126.839 41.9297 126.953 41.8824C127.067 41.8351 127.189 41.8108 127.312 41.8108C127.436 41.8108 127.558 41.8351 127.672 41.8824C127.786 41.9297 127.889 41.9989 127.976 42.0862Z" fill="white"/>
<path fill-rule="evenodd" clip-rule="evenodd" d="M121.688 48.375C121.688 48.1264 121.786 47.8879 121.962 47.7121C122.138 47.5363 122.376 47.4375 122.625 47.4375H142.312C142.561 47.4375 142.8 47.5363 142.975 47.7121C143.151 47.8879 143.25 48.1264 143.25 48.375C143.25 48.6236 143.151 48.8621 142.975 49.0379C142.8 49.2137 142.561 49.3125 142.312 49.3125H122.625C122.376 49.3125 122.138 49.2137 121.962 49.0379C121.786 48.8621 121.688 48.6236 121.688 48.375Z" fill="white"/>
<path fill-rule="evenodd" clip-rule="evenodd" d="M317.024 53.3362C317.111 53.2489 317.214 53.1797 317.328 53.1324C317.442 53.0851 317.564 53.0608 317.687 53.0608C317.811 53.0608 317.933 53.0851 318.047 53.1324C318.161 53.1797 318.264 53.2489 318.351 53.3362L323.976 58.9612C324.064 59.0483 324.133 59.1518 324.18 59.2657C324.227 59.3796 324.252 59.5017 324.252 59.625C324.252 59.7483 324.227 59.8704 324.18 59.9843C324.133 60.0982 324.064 60.2017 323.976 60.2887L318.351 65.9137C318.175 66.0898 317.936 66.1887 317.687 66.1887C317.439 66.1887 317.2 66.0898 317.024 65.9137C316.848 65.7377 316.749 65.499 316.749 65.25C316.749 65.001 316.848 64.7623 317.024 64.5862L321.987 59.625L317.024 54.6637C316.936 54.5767 316.867 54.4732 316.82 54.3593C316.773 54.2454 316.748 54.1233 316.748 54C316.748 53.8767 316.773 53.7546 316.82 53.6407C316.867 53.5268 316.936 53.4233 317.024 53.3362Z" fill="white"/>
<path fill-rule="evenodd" clip-rule="evenodd" d="M301.75 59.625C301.75 59.3764 301.849 59.1379 302.025 58.9621C302.2 58.7863 302.439 58.6875 302.687 58.6875H322.375C322.624 58.6875 322.862 58.7863 323.038 58.9621C323.214 59.1379 323.312 59.3764 323.312 59.625C323.312 59.8736 323.214 60.1121 323.038 60.2879C322.862 60.4637 322.624 60.5625 322.375 60.5625H302.687C302.439 60.5625 302.2 60.4637 302.025 60.2879C301.849 60.1121 301.75 59.8736 301.75 59.625ZM308.976 42.0862C309.064 42.1733 309.133 42.2768 309.18 42.3907C309.227 42.5046 309.252 42.6267 309.252 42.75C309.252 42.8733 309.227 42.9954 309.18 43.1093C309.133 43.2232 309.064 43.3267 308.976 43.4137L304.013 48.375L308.976 53.3362C309.063 53.4234 309.133 53.5269 309.18 53.6408C309.227 53.7547 309.251 53.8767 309.251 54C309.251 54.1233 309.227 54.2453 309.18 54.3592C309.133 54.4731 309.063 54.5766 308.976 54.6637C308.889 54.7509 308.786 54.8201 308.672 54.8672C308.558 54.9144 308.436 54.9387 308.312 54.9387C308.189 54.9387 308.067 54.9144 307.953 54.8672C307.839 54.8201 307.736 54.7509 307.649 54.6637L302.024 49.0387C301.936 48.9517 301.867 48.8482 301.82 48.7343C301.773 48.6204 301.748 48.4983 301.748 48.375C301.748 48.2517 301.773 48.1296 301.82 48.0157C301.867 47.9018 301.936 47.7983 302.024 47.7112L307.649 42.0862C307.736 41.9989 307.839 41.9297 307.953 41.8824C308.067 41.8351 308.189 41.8108 308.312 41.8108C308.436 41.8108 308.558 41.8351 308.672 41.8824C308.786 41.9297 308.889 41.9989 308.976 42.0862Z" fill="white"/>
<path fill-rule="evenodd" clip-rule="evenodd" d="M302.688 48.375C302.688 48.1264 302.786 47.8879 302.962 47.7121C303.138 47.5363 303.376 47.4375 303.625 47.4375H323.312C323.561 47.4375 323.8 47.5363 323.975 47.7121C324.151 47.8879 324.25 48.1264 324.25 48.375C324.25 48.6236 324.151 48.8621 323.975 49.0379C323.8 49.2137 323.561 49.3125 323.312 49.3125H303.625C303.376 49.3125 303.138 49.2137 302.962 49.0379C302.786 48.8621 302.688 48.6236 302.688 48.375Z" fill="white"/>
<path fill-rule="evenodd" clip-rule="evenodd" d="M526.024 53.3362C526.111 53.2489 526.214 53.1797 526.328 53.1324C526.442 53.0851 526.564 53.0608 526.687 53.0608C526.811 53.0608 526.933 53.0851 527.047 53.1324C527.161 53.1797 527.264 53.2489 527.351 53.3362L532.976 58.9612C533.064 59.0483 533.133 59.1518 533.18 59.2657C533.227 59.3796 533.252 59.5017 533.252 59.625C533.252 59.7483 533.227 59.8704 533.18 59.9843C533.133 60.0982 533.064 60.2017 532.976 60.2887L527.351 65.9137C527.175 66.0898 526.936 66.1887 526.687 66.1887C526.439 66.1887 526.2 66.0898 526.024 65.9137C525.848 65.7377 525.749 65.499 525.749 65.25C525.749 65.001 525.848 64.7623 526.024 64.5862L530.987 59.625L526.024 54.6637C525.936 54.5767 525.867 54.4732 525.82 54.3593C525.773 54.2454 525.748 54.1233 525.748 54C525.748 53.8767 525.773 53.7546 525.82 53.6407C525.867 53.5268 525.936 53.4233 526.024 53.3362Z" fill="white"/>
<path fill-rule="evenodd" clip-rule="evenodd" d="M510.75 59.625C510.75 59.3764 510.849 59.1379 511.025 58.9621C511.2 58.7863 511.439 58.6875 511.687 58.6875H531.375C531.624 58.6875 531.862 58.7863 532.038 58.9621C532.214 59.1379 532.312 59.3764 532.312 59.625C532.312 59.8736 532.214 60.1121 532.038 60.2879C531.862 60.4637 531.624 60.5625 531.375 60.5625H511.687C511.439 60.5625 511.2 60.4637 511.025 60.2879C510.849 60.1121 510.75 59.8736 510.75 59.625ZM517.976 42.0862C518.064 42.1733 518.133 42.2768 518.18 42.3907C518.227 42.5046 518.252 42.6267 518.252 42.75C518.252 42.8733 518.227 42.9954 518.18 43.1093C518.133 43.2232 518.064 43.3267 517.976 43.4137L513.013 48.375L517.976 53.3362C518.063 53.4234 518.133 53.5269 518.18 53.6408C518.227 53.7547 518.251 53.8767 518.251 54C518.251 54.1233 518.227 54.2453 518.18 54.3592C518.133 54.4731 518.063 54.5766 517.976 54.6637C517.889 54.7509 517.786 54.8201 517.672 54.8672C517.558 54.9144 517.436 54.9387 517.312 54.9387C517.189 54.9387 517.067 54.9144 516.953 54.8672C516.839 54.8201 516.736 54.7509 516.649 54.6637L511.024 49.0387C510.936 48.9517 510.867 48.8482 510.82 48.7343C510.773 48.6204 510.748 48.4983 510.748 48.375C510.748 48.2517 510.773 48.1296 510.82 48.0157C510.867 47.9018 510.936 47.7983 511.024 47.7112L516.649 42.0862C516.736 41.9989 516.839 41.9297 516.953 41.8824C517.067 41.8351 517.189 41.8108 517.312 41.8108C517.436 41.8108 517.558 41.8351 517.672 41.8824C517.786 41.9297 517.889 41.9989 517.976 42.0862Z" fill="white"/>
<path fill-rule="evenodd" clip-rule="evenodd" d="M511.688 48.375C511.688 48.1264 511.786 47.8879 511.962 47.7121C512.138 47.5363 512.376 47.4375 512.625 47.4375H532.312C532.561 47.4375 532.8 47.5363 532.975 47.7121C533.151 47.8879 533.25 48.1264 533.25 48.375C533.25 48.6236 533.151 48.8621 532.975 49.0379C532.8 49.2137 532.561 49.3125 532.312 49.3125H512.625C512.376 49.3125 512.138 49.2137 511.962 49.0379C511.786 48.8621 511.688 48.6236 511.688 48.375Z" fill="white"/>
<path fill-rule="evenodd" clip-rule="evenodd" d="M716.024 53.3362C716.111 53.2489 716.214 53.1797 716.328 53.1324C716.442 53.0851 716.564 53.0608 716.687 53.0608C716.811 53.0608 716.933 53.0851 717.047 53.1324C717.161 53.1797 717.264 53.2489 717.351 53.3362L722.976 58.9612C723.064 59.0483 723.133 59.1518 723.18 59.2657C723.227 59.3796 723.252 59.5017 723.252 59.625C723.252 59.7483 723.227 59.8704 723.18 59.9843C723.133 60.0982 723.064 60.2017 722.976 60.2887L717.351 65.9137C717.175 66.0898 716.936 66.1887 716.687 66.1887C716.439 66.1887 716.2 66.0898 716.024 65.9137C715.848 65.7377 715.749 65.499 715.749 65.25C715.749 65.001 715.848 64.7623 716.024 64.5862L720.987 59.625L716.024 54.6637C715.936 54.5767 715.867 54.4732 715.82 54.3593C715.773 54.2454 715.748 54.1233 715.748 54C715.748 53.8767 715.773 53.7546 715.82 53.6407C715.867 53.5268 715.936 53.4233 716.024 53.3362Z" fill="white"/>
<path fill-rule="evenodd" clip-rule="evenodd" d="M700.75 59.625C700.75 59.3764 700.849 59.1379 701.025 58.9621C701.2 58.7863 701.439 58.6875 701.687 58.6875H721.375C721.624 58.6875 721.862 58.7863 722.038 58.9621C722.214 59.1379 722.312 59.3764 722.312 59.625C722.312 59.8736 722.214 60.1121 722.038 60.2879C721.862 60.4637 721.624 60.5625 721.375 60.5625H701.687C701.439 60.5625 701.2 60.4637 701.025 60.2879C700.849 60.1121 700.75 59.8736 700.75 59.625ZM707.976 42.0862C708.064 42.1733 708.133 42.2768 708.18 42.3907C708.227 42.5046 708.252 42.6267 708.252 42.75C708.252 42.8733 708.227 42.9954 708.18 43.1093C708.133 43.2232 708.064 43.3267 707.976 43.4137L703.013 48.375L707.976 53.3362C708.063 53.4234 708.133 53.5269 708.18 53.6408C708.227 53.7547 708.251 53.8767 708.251 54C708.251 54.1233 708.227 54.2453 708.18 54.3592C708.133 54.4731 708.063 54.5766 707.976 54.6637C707.889 54.7509 707.786 54.8201 707.672 54.8672C707.558 54.9144 707.436 54.9387 707.312 54.9387C707.189 54.9387 707.067 54.9144 706.953 54.8672C706.839 54.8201 706.736 54.7509 706.649 54.6637L701.024 49.0387C700.936 48.9517 700.867 48.8482 700.82 48.7343C700.773 48.6204 700.748 48.4983 700.748 48.375C700.748 48.2517 700.773 48.1296 700.82 48.0157C700.867 47.9018 700.936 47.7983 701.024 47.7112L706.649 42.0862C706.736 41.9989 706.839 41.9297 706.953 41.8824C707.067 41.8351 707.189 41.8108 707.312 41.8108C707.436 41.8108 707.558 41.8351 707.672 41.8824C707.786 41.9297 707.889 41.9989 707.976 42.0862Z" fill="white"/>
<path fill-rule="evenodd" clip-rule="evenodd" d="M701.688 48.375C701.688 48.1264 701.786 47.8879 701.962 47.7121C702.138 47.5363 702.376 47.4375 702.625 47.4375H722.312C722.561 47.4375 722.8 47.5363 722.975 47.7121C723.151 47.8879 723.25 48.1264 723.25 48.375C723.25 48.6236 723.151 48.8621 722.975 49.0379C722.8 49.2137 722.561 49.3125 722.312 49.3125H702.625C702.376 49.3125 702.138 49.2137 701.962 49.0379C701.786 48.8621 701.688 48.6236 701.688 48.375Z" fill="white"/>
<defs>
<clipPath id="clip0">
<rect width="60" height="79.9999" fill="white" transform="translate(188 13)"/>
</clipPath>
<clipPath id="clip1">
<rect width="79" height="78.8459" fill="white" transform="translate(0 13)"/>
</clipPath>
</defs>
</svg>
