<svg width="808" height="485" viewBox="0 0 808 485" fill="none" xmlns="http://www.w3.org/2000/svg">
<path d="M95.3125 300H51.875C41.7708 300 33.125 296.458 25.9375 289.375C18.8542 282.188 15.3125 273.542 15.3125 263.438V103.438C15.3125 93.3333 18.8542 84.7396 25.9375 77.6562C33.125 70.4688 41.7708 66.875 51.875 66.875H95.3125C105.417 66.875 114.01 70.4688 121.094 77.6562C128.281 84.7396 131.875 93.3333 131.875 103.438V161.562H95.3125V108.125C95.3125 105.938 94.5312 104.115 92.9688 102.656C91.5104 101.094 89.7396 100.312 87.6562 100.312H59.6875C57.5 100.312 55.625 101.094 54.0625 102.656C52.6042 104.115 51.875 105.938 51.875 108.125V258.906C51.875 260.99 52.6042 262.812 54.0625 264.375C55.625 265.833 57.5 266.562 59.6875 266.562H87.6562C89.7396 266.562 91.5104 265.833 92.9688 264.375C94.5312 262.812 95.3125 260.99 95.3125 258.906V216.875H73.5938V183.438H131.875V263.438C131.875 273.542 128.281 282.188 121.094 289.375C114.01 296.458 105.417 300 95.3125 300ZM257.625 199.062C261.479 199.062 264.76 197.708 267.469 195C270.281 192.188 271.688 188.802 271.688 184.844V139.219C271.688 137.135 270.906 135.365 269.344 133.906C267.885 132.344 266.115 131.562 264.031 131.562H234.5V199.062H257.625ZM271.688 300V246.562C271.688 242.708 270.281 239.427 267.469 236.719C264.76 233.906 261.479 232.5 257.625 232.5H234.5V300H197.938V98.125H271.688C281.792 98.125 290.385 101.719 297.469 108.906C304.656 115.99 308.25 124.583 308.25 134.688V182.031C308.25 198.385 301.219 209.635 287.156 215.781C301.219 221.927 308.25 233.125 308.25 249.375V300H271.688ZM372.125 134.688C372.125 124.583 375.667 115.99 382.75 108.906C389.938 101.719 398.583 98.125 408.688 98.125H445.875C455.979 98.125 464.573 101.719 471.656 108.906C478.844 115.99 482.438 124.583 482.438 134.688V300H445.875V232.5H408.688V300H372.125V134.688ZM408.688 199.062H445.875V139.375C445.875 137.188 445.094 135.365 443.531 133.906C442.073 132.344 440.302 131.562 438.219 131.562H416.5C414.312 131.562 412.438 132.344 410.875 133.906C409.417 135.365 408.688 137.188 408.688 139.375V199.062ZM622.562 300H585.375C575.271 300 566.625 296.458 559.438 289.375C552.354 282.188 548.812 273.542 548.812 263.438V98.125H585.375V258.906C585.375 260.99 586.104 262.812 587.562 264.375C589.125 265.833 591 266.562 593.188 266.562H614.906C616.99 266.562 618.76 265.833 620.219 264.375C621.781 262.812 622.562 260.99 622.562 258.906V98.125H659.125V263.438C659.125 273.542 655.531 282.188 648.344 289.375C641.26 296.458 632.667 300 622.562 300ZM802.062 300H704.875V280.156L761.281 100.312H704.875V66.875H802.062V86.7188L745.656 266.562H802.062V300Z" fill="white"/>
<path d="M72.6318 449H53.0938V420.528C53.0938 418.413 52.3423 416.631 50.8394 415.184C49.3921 413.681 47.6387 412.93 45.5791 412.93H33.2217V449H13.6836V341.123H33.2217V395.062H45.5791C47.6387 395.062 49.3921 394.338 50.8394 392.891C52.3423 391.388 53.0938 389.606 53.0938 387.547V341.123H72.6318V386.044C72.6318 394.728 68.8745 400.711 61.3599 403.996C68.8745 407.28 72.6318 413.264 72.6318 421.947V449ZM167.216 449H149.348L126.136 386.211V449H108.268V341.123H126.136L149.348 403.996V341.123H167.216V449ZM241.929 363.166C241.929 361.997 241.511 361.023 240.676 360.244C239.897 359.409 238.95 358.991 237.837 358.991H226.148C225.034 358.991 224.06 359.409 223.225 360.244C222.446 361.023 222.056 361.997 222.056 363.166V426.957C222.056 428.126 222.446 429.128 223.225 429.963C224.06 430.742 225.034 431.132 226.148 431.132H237.837C238.95 431.132 239.897 430.742 240.676 429.963C241.511 429.128 241.929 428.126 241.929 426.957V363.166ZM261.467 429.462C261.467 434.861 259.546 439.481 255.705 443.322C251.92 447.107 247.328 449 241.929 449H222.056C216.657 449 212.037 447.107 208.196 443.322C204.411 439.481 202.518 434.861 202.518 429.462V360.661C202.518 355.262 204.411 350.669 208.196 346.884C212.037 343.043 216.657 341.123 222.056 341.123H241.929C247.328 341.123 251.92 343.043 255.705 346.884C259.546 350.669 261.467 355.262 261.467 360.661V429.462ZM373.585 449H350.039L338.016 367.09L325.992 449H302.446L284.578 341.123H301.862L314.971 420.194L326.577 341.123H349.455L361.061 420.194L374.17 341.123H391.453L373.585 449ZM465.08 449H416.402V341.123H435.94V431.132H465.08V449ZM535.033 395.062V412.93H510.819V431.132H539.876V449H491.281V341.123H539.876V358.991H510.819V395.062H535.033ZM605.07 449H585.198C579.798 449 575.178 447.107 571.337 443.322C567.552 439.481 565.66 434.861 565.66 429.462V361.496C565.66 356.097 567.552 351.504 571.337 347.719C575.178 343.878 579.798 341.958 585.198 341.958H605.07C610.469 341.958 615.061 343.878 618.847 347.719C622.687 351.504 624.608 356.097 624.608 361.496V383.372H605.07V363.917C605.07 362.804 604.652 361.858 603.817 361.079C603.038 360.244 602.092 359.826 600.978 359.826H589.372C588.203 359.826 587.202 360.244 586.367 361.079C585.587 361.858 585.198 362.804 585.198 363.917V426.957C585.198 428.126 585.587 429.128 586.367 429.963C587.202 430.742 588.203 431.132 589.372 431.132H600.978C602.092 431.132 603.038 430.742 603.817 429.963C604.652 429.128 605.07 428.126 605.07 426.957V412.93H595.134V395.062H624.608V429.462C624.608 434.861 622.687 439.481 618.847 443.322C615.061 447.107 610.469 449 605.07 449ZM717.856 429.462C717.856 434.861 715.936 439.481 712.095 443.322C708.31 447.107 703.718 449 698.318 449H658.908V341.123H698.318C703.718 341.123 708.31 343.043 712.095 346.884C715.936 350.669 717.856 355.262 717.856 360.661V429.462ZM698.318 363.166C698.318 361.997 697.901 361.023 697.066 360.244C696.286 359.409 695.34 358.991 694.227 358.991H678.446V431.132H694.227C695.34 431.132 696.286 430.742 697.066 429.963C697.901 429.128 698.318 428.154 698.318 427.041V363.166ZM796.576 395.062V412.93H772.362V431.132H801.419V449H752.824V341.123H801.419V358.991H772.362V395.062H796.576Z" fill="white"/>
<rect x="14" y="315" width="788" height="10" fill="white"/>
</svg>
