<svg width="24" height="24" viewBox="0 0 24 24" fill="none" xmlns="http://www.w3.org/2000/svg">
<path d="M17.25 15C16.6886 15.0028 16.135 15.1317 15.63 15.377C15.1251 15.6223 14.6817 15.9779 14.3325 16.4175L8.84999 12.99C9.0498 12.3451 9.0498 11.6549 8.84999 11.01L14.3325 7.5825C14.8889 8.27154 15.6713 8.74138 16.541 8.90881C17.4107 9.07623 18.3116 8.93042 19.0841 8.49722C19.8566 8.06401 20.4509 7.37137 20.7616 6.54199C21.0723 5.7126 21.0794 4.80001 20.7817 3.96588C20.484 3.13174 19.9006 2.4299 19.135 1.98467C18.3694 1.53945 17.4709 1.37959 16.5986 1.5334C15.7264 1.68722 14.9368 2.14478 14.3697 2.82504C13.8025 3.5053 13.4944 4.36434 13.5 5.25C13.5035 5.58538 13.554 5.91862 13.65 6.24L8.16749 9.6675C7.68347 9.05819 7.02189 8.61454 6.27445 8.39805C5.52701 8.18156 4.73073 8.20295 3.99599 8.45926C3.26126 8.71557 2.62445 9.1941 2.17385 9.82853C1.72325 10.463 1.48117 11.2218 1.48117 12C1.48117 12.7782 1.72325 13.5371 2.17385 14.1715C2.62445 14.8059 3.26126 15.2844 3.99599 15.5407C4.73073 15.7971 5.52701 15.8184 6.27445 15.602C7.02189 15.3855 7.68347 14.9418 8.16749 14.3325L13.65 17.76C13.554 18.0814 13.5035 18.4146 13.5 18.75C13.5 19.4917 13.7199 20.2167 14.132 20.8334C14.544 21.4501 15.1297 21.9307 15.8149 22.2146C16.5001 22.4984 17.2541 22.5726 17.9816 22.4279C18.709 22.2833 19.3772 21.9261 19.9016 21.4017C20.4261 20.8772 20.7832 20.209 20.9279 19.4816C21.0726 18.7542 20.9984 18.0002 20.7145 17.3149C20.4307 16.6297 19.9501 16.044 19.3334 15.632C18.7167 15.2199 17.9917 15 17.25 15ZM17.25 3C17.695 3 18.13 3.13196 18.5 3.37919C18.87 3.62643 19.1584 3.97783 19.3287 4.38896C19.499 4.8001 19.5436 5.2525 19.4568 5.68895C19.3699 6.12541 19.1556 6.52632 18.841 6.84099C18.5263 7.15566 18.1254 7.36995 17.6889 7.45677C17.2525 7.54358 16.8001 7.49903 16.3889 7.32873C15.9778 7.15843 15.6264 6.87004 15.3792 6.50003C15.1319 6.13002 15 5.69501 15 5.25C15 4.65326 15.237 4.08097 15.659 3.65901C16.0809 3.23705 16.6532 3 17.25 3ZM5.24999 14.25C4.80498 14.25 4.36996 14.118 3.99995 13.8708C3.62994 13.6236 3.34155 13.2722 3.17126 12.861C3.00096 12.4499 2.9564 11.9975 3.04322 11.561C3.13004 11.1246 3.34433 10.7237 3.65899 10.409C3.97366 10.0943 4.37457 9.88005 4.81103 9.79323C5.24749 9.70642 5.69989 9.75097 6.11102 9.92127C6.52216 10.0916 6.87356 10.38 7.12079 10.75C7.36802 11.12 7.49998 11.555 7.49998 12C7.49998 12.5967 7.26293 13.169 6.84098 13.591C6.41902 14.0129 5.84672 14.25 5.24999 14.25ZM17.25 21C16.805 21 16.37 20.868 16 20.6208C15.6299 20.3736 15.3416 20.0222 15.1713 19.611C15.001 19.1999 14.9564 18.7475 15.0432 18.311C15.13 17.8746 15.3443 17.4737 15.659 17.159C15.9737 16.8443 16.3746 16.63 16.811 16.5432C17.2475 16.4564 17.6999 16.501 18.111 16.6713C18.5222 16.8416 18.8736 17.13 19.1208 17.5C19.368 17.87 19.5 18.305 19.5 18.75C19.5 19.3467 19.2629 19.919 18.841 20.341C18.419 20.7629 17.8467 21 17.25 21Z" fill="white"/>
</svg>
